name rise37.2698peak67.6939fall79.5734.mot
datacolumns 19
datarows 35
range 20.37160100000000 20.42825800000000
endheader
time	ground_force1_vx	ground_force1_vy	ground_force1_vz	ground_force1_px	ground_force1_py	ground_force1_pz	ground_force2_vx	ground_force2_vy	ground_force2_vz	ground_force2_px	ground_force2_py	ground_force2_pz	ground_torque1_x	ground_torque1_y	ground_torque1_z	ground_torque2_x	ground_torque2_y	ground_torque2_z	
20.37160100000000	-43.12423600000000	786.94781799999998	50.20296400000000	0.14565800000000	0.00000000000000	0.09571100000000	-5.62987600000000	64.45358800000000	7.92808600000000	0.35526800000000	0.00000000000000	-0.07416200000000	0.00000000000000	22.55043800000000	0.00000000000000	0.00000000000000	5.10622500000000	0.00000000000000	
20.37325300000000	-43.68837100000000	785.97877300000005	50.10049100000000	0.14481200000000	0.00000000000000	0.09565300000000	-5.78498100000000	70.26951500000000	8.38969600000000	0.35988000000000	0.00000000000000	-0.07420600000000	0.00000000000000	22.49258500000000	0.00000000000000	0.00000000000000	5.47640800000000	0.00000000000000	
20.37492200000000	-44.25908200000000	784.91697299999998	49.97751500000000	0.14399300000000	0.00000000000000	0.09558900000000	-5.84916500000000	75.84003900000000	8.77324500000000	0.36431800000000	0.00000000000000	-0.07423900000000	0.00000000000000	22.43309300000000	0.00000000000000	0.00000000000000	5.80533700000000	0.00000000000000	
20.37660300000000	-44.83680000000000	783.75947299999996	49.83384900000000	0.14319900000000	0.00000000000000	0.09552200000000	-5.82472000000000	81.17233800000000	9.08135100000000	0.36858800000000	0.00000000000000	-0.07426400000000	0.00000000000000	22.37209200000000	0.00000000000000	0.00000000000000	6.09343600000000	0.00000000000000	
20.37825800000000	-45.42192800000000	782.50328999999999	49.66934400000000	0.14243000000000	0.00000000000000	0.09544900000000	-5.71643700000000	86.29235300000001	9.31950700000000	0.37270000000000	0.00000000000000	-0.07428200000000	0.00000000000000	22.30970500000000	0.00000000000000	0.00000000000000	6.34305400000000	0.00000000000000	
20.37992700000000	-46.01483800000000	781.14541099999997	49.48388600000000	0.14168700000000	0.00000000000000	0.09537100000000	-5.53082400000000	91.23986900000000	9.49519900000000	0.37665800000000	0.00000000000000	-0.07429500000000	0.00000000000000	22.24604300000000	0.00000000000000	0.00000000000000	6.55795100000000	0.00000000000000	
20.38160100000000	-46.61587000000000	779.68279600000005	49.27740200000000	0.14096900000000	0.00000000000000	0.09528800000000	-5.27533000000000	96.06332500000001	9.61701700000000	0.38046700000000	0.00000000000000	-0.07430500000000	0.00000000000000	22.18120700000000	0.00000000000000	0.00000000000000	6.74276800000000	0.00000000000000	
20.38325600000000	-47.22532100000000	778.11238300000002	49.04985100000000	0.14027600000000	0.00000000000000	0.09520100000000	-4.95762900000000	100.81480700000000	9.69382700000000	0.38413100000000	0.00000000000000	-0.07431300000000	0.00000000000000	22.11528600000000	0.00000000000000	0.00000000000000	6.90249900000000	0.00000000000000	
20.38492800000000	-47.84345000000000	776.43109400000003	48.80123300000000	0.13960700000000	0.00000000000000	0.09510800000000	-4.58501400000000	105.54561500000000	9.73406600000000	0.38765400000000	0.00000000000000	-0.07432100000000	0.00000000000000	22.04835900000000	0.00000000000000	0.00000000000000	7.04202700000000	0.00000000000000	
20.38658600000000	-48.47046500000000	774.63583800000004	48.53158100000000	0.13896200000000	0.00000000000000	0.09501100000000	-4.16393000000000	110.30263600000001	9.74518300000000	0.39103700000000	0.00000000000000	-0.07432800000000	0.00000000000000	21.98049000000000	0.00000000000000	0.00000000000000	7.16574700000000	0.00000000000000	
20.38825900000000	-49.10652700000000	772.72351900000001	48.24096600000000	0.13833900000000	0.00000000000000	0.09490900000000	-3.69966400000000	115.12566900000000	9.73326400000000	0.39428200000000	0.00000000000000	-0.07433800000000	0.00000000000000	21.91173300000000	0.00000000000000	0.00000000000000	7.27728100000000	0.00000000000000	
20.38992100000000	-49.75173800000000	770.69104300000004	47.92949300000000	0.13773800000000	0.00000000000000	0.09480300000000	-3.19617200000000	120.04574000000000	9.70280700000000	0.39739100000000	0.00000000000000	-0.07434900000000	0.00000000000000	21.84212700000000	0.00000000000000	0.00000000000000	7.37930400000000	0.00000000000000	
20.39160500000000	-50.40614200000000	768.53531999999996	47.59730300000000	0.13715800000000	0.00000000000000	0.09469200000000	-2.65605000000000	125.08435400000000	9.65667600000000	0.40036500000000	0.00000000000000	-0.07436300000000	0.00000000000000	21.77169900000000	0.00000000000000	0.00000000000000	7.47347800000000	0.00000000000000	
20.39325900000000	-51.06971900000000	766.25327700000003	47.24457100000000	0.13659600000000	0.00000000000000	0.09457600000000	-2.08062000000000	130.25357199999999	9.59616800000000	0.40320600000000	0.00000000000000	-0.07438100000000	0.00000000000000	21.70046100000000	0.00000000000000	0.00000000000000	7.56045900000000	0.00000000000000	
20.39492100000000	-51.74237900000000	763.84185900000000	46.87150300000000	0.13605300000000	0.00000000000000	0.09445600000000	-1.47009000000000	135.55676000000000	9.52119300000000	0.40591300000000	0.00000000000000	-0.07440300000000	0.00000000000000	21.62841300000000	0.00000000000000	0.00000000000000	7.64000000000000	0.00000000000000	
20.39658700000000	-52.42396400000000	761.29804100000001	46.47834100000000	0.13552600000000	0.00000000000000	0.09433200000000	-0.82378800000000	140.98982300000000	9.43052300000000	0.40848700000000	0.00000000000000	-0.07442900000000	0.00000000000000	21.55554200000000	0.00000000000000	0.00000000000000	7.71108300000000	0.00000000000000	
20.39825700000000	-53.11423700000000	758.61883000000000	46.06535600000000	0.13501500000000	0.00000000000000	0.09420300000000	-0.14041600000000	146.54275200000001	9.32207900000000	0.41092800000000	0.00000000000000	-0.07446100000000	0.00000000000000	21.48181900000000	0.00000000000000	0.00000000000000	7.77210800000000	0.00000000000000	
20.39992000000000	-53.81288100000000	755.80128000000002	45.63285100000000	0.13451600000000	0.00000000000000	0.09407100000000	0.58169000000000	152.20129900000001	9.19323000000000	0.41323700000000	0.00000000000000	-0.07449800000000	0.00000000000000	21.40720500000000	0.00000000000000	0.00000000000000	7.82107700000000	0.00000000000000	
20.40160600000000	-54.51949800000000	752.84249299999999	45.18115700000000	0.13402900000000	0.00000000000000	0.09393500000000	1.34430500000000	157.94864899999999	9.04107800000000	0.41541400000000	0.00000000000000	-0.07454100000000	0.00000000000000	21.33164400000000	0.00000000000000	0.00000000000000	7.85578800000000	0.00000000000000	
20.40326100000000	-55.23360400000000	749.73962900000004	44.71063600000000	0.13355200000000	0.00000000000000	0.09379500000000	2.14910500000000	163.76694900000001	8.86271600000000	0.41745900000000	0.00000000000000	-0.07459000000000	0.00000000000000	21.25507200000000	0.00000000000000	0.00000000000000	7.87400600000000	0.00000000000000	
20.40492100000000	-55.95462200000000	746.48991699999999	44.22167700000000	0.13308200000000	0.00000000000000	0.09365200000000	2.99748400000000	169.63862100000000	8.65543400000000	0.41937200000000	0.00000000000000	-0.07464500000000	0.00000000000000	21.17740900000000	0.00000000000000	0.00000000000000	7.87361500000000	0.00000000000000	
20.40660200000000	-56.68188800000000	743.09065699999996	43.71469400000000	0.13261800000000	0.00000000000000	0.09350500000000	3.89042500000000	175.54740200000001	8.41688100000000	0.42115300000000	0.00000000000000	-0.07470700000000	0.00000000000000	21.09856300000000	0.00000000000000	0.00000000000000	7.85272700000000	0.00000000000000	
20.40826000000000	-57.41464200000000	739.53923399999996	43.19012800000000	0.13215800000000	0.00000000000000	0.09335600000000	4.82841400000000	181.47908899999999	8.14516900000000	0.42280200000000	0.00000000000000	-0.07477600000000	0.00000000000000	21.01843300000000	0.00000000000000	0.00000000000000	7.80977000000000	0.00000000000000	
20.40992800000000	-58.15202600000000	735.83312500000000	42.64844400000000	0.13170000000000	0.00000000000000	0.09320400000000	5.81140500000000	187.42198300000001	7.83893600000000	0.42432000000000	0.00000000000000	-0.07485200000000	0.00000000000000	20.93690500000000	0.00000000000000	0.00000000000000	7.74353100000000	0.00000000000000	
20.41159700000000	-58.89308900000000	731.96990500000004	42.09013100000000	0.13124100000000	0.00000000000000	0.09304800000000	6.83881100000000	193.36708100000001	7.49735000000000	0.42570700000000	0.00000000000000	-0.07493500000000	0.00000000000000	20.85385500000000	0.00000000000000	0.00000000000000	7.65317300000000	0.00000000000000	
20.41325300000000	-59.63677900000000	727.94725700000004	41.51569700000000	0.13077900000000	0.00000000000000	0.09289100000000	7.90954400000000	199.30802600000001	7.12009400000000	0.42696300000000	0.00000000000000	-0.07502500000000	0.00000000000000	20.76914900000000	0.00000000000000	0.00000000000000	7.53822800000000	0.00000000000000	
20.41492600000000	-60.38194700000000	723.76298299999996	40.92567400000000	0.13031300000000	0.00000000000000	0.09273100000000	9.02205800000000	205.24088599999999	6.70730600000000	0.42808900000000	0.00000000000000	-0.07512200000000	0.00000000000000	20.68264300000000	0.00000000000000	0.00000000000000	7.39856200000000	0.00000000000000	
20.41660900000000	-61.12734500000000	719.41501100000005	40.32061200000000	0.12984000000000	0.00000000000000	0.09256900000000	10.17442600000000	211.16381500000000	6.25951500000000	0.42908500000000	0.00000000000000	-0.07522700000000	0.00000000000000	20.59418600000000	0.00000000000000	0.00000000000000	7.23433900000000	0.00000000000000	
20.41825700000000	-61.87162700000000	714.90140499999995	39.70108100000000	0.12935800000000	0.00000000000000	0.09240500000000	11.36441400000000	217.07662400000001	5.77756100000000	0.42995200000000	0.00000000000000	-0.07533900000000	0.00000000000000	20.50361800000000	0.00000000000000	0.00000000000000	7.04596300000000	0.00000000000000	
20.41992900000000	-62.61335300000000	710.22037699999998	39.06766700000000	0.12886400000000	0.00000000000000	0.09224000000000	12.58955500000000	222.98034300000000	5.26251400000000	0.43069000000000	0.00000000000000	-0.07545700000000	0.00000000000000	20.41077300000000	0.00000000000000	0.00000000000000	6.83402500000000	0.00000000000000	
20.42158600000000	-63.35098500000000	705.37029500000006	38.42097200000000	0.12835700000000	0.00000000000000	0.09207400000000	13.84722600000000	228.87678399999999	4.71559800000000	0.43130200000000	0.00000000000000	-0.07558300000000	0.00000000000000	20.31547600000000	0.00000000000000	0.00000000000000	6.59925300000000	0.00000000000000	
20.42326200000000	-64.08289600000001	700.34969400000000	37.76161400000000	0.12783500000000	0.00000000000000	0.09190600000000	15.13470800000000	234.76815800000000	4.13812600000000	0.43178800000000	0.00000000000000	-0.07571500000000	0.00000000000000	20.21754900000000	0.00000000000000	0.00000000000000	6.34246400000000	0.00000000000000	
20.42492900000000	-64.80736700000000	695.15729199999998	37.09022400000000	0.12729500000000	0.00000000000000	0.09173700000000	16.44924000000000	240.65674100000001	3.53144500000000	0.43214900000000	0.00000000000000	-0.07585500000000	0.00000000000000	20.11680900000000	0.00000000000000	0.00000000000000	6.06452700000000	0.00000000000000	
20.42660500000000	-65.52259400000000	689.79199700000004	36.40744700000000	0.12673500000000	0.00000000000000	0.09156700000000	17.78805800000000	246.54463600000000	2.89689500000000	0.43238800000000	0.00000000000000	-0.07600000000000	0.00000000000000	20.01306800000000	0.00000000000000	0.00000000000000	5.76633000000000	0.00000000000000	
20.42825800000000	-66.22669200000000	684.25291900000002	35.71393900000000	0.12615400000000	0.00000000000000	0.09139700000000	19.14842400000000	252.43359599999999	2.23578600000000	0.43250600000000	0.00000000000000	-0.07615200000000	0.00000000000000	19.90613300000000	0.00000000000000	0.00000000000000	5.44876300000000	0.00000000000000	
